<?xml version="1.0" encoding="UTF-8" ?>
<svg version="1.1" width="1920" height="1080" xmlns="http://www.w3.org/2000/svg" shape-rendering="crispEdges">
<rect x="0" y="0" width="1920" height="10" fill="#61473F" />
<rect x="0" y="10" width="10" height="250" fill="#61473F" />
<rect x="10" y="10" width="490" height="230" fill="#966F62" />
<rect x="500" y="10" width="20" height="250" fill="#61473F" />
<rect x="520" y="10" width="440" height="230" fill="#966F62" />
<rect x="960" y="10" width="20" height="250" fill="#61473F" />
<rect x="980" y="10" width="530" height="230" fill="#966F62" />
<rect x="1510" y="10" width="20" height="250" fill="#61473F" />
<rect x="1530" y="10" width="380" height="230" fill="#966F62" />
<rect x="1910" y="10" width="10" height="250" fill="#61473F" />
<rect x="10" y="240" width="490" height="20" fill="#61473F" />
<rect x="520" y="240" width="440" height="20" fill="#61473F" />
<rect x="980" y="240" width="530" height="20" fill="#61473F" />
<rect x="1530" y="240" width="380" height="20" fill="#61473F" />
<rect x="0" y="260" width="260" height="210" fill="#966F62" />
<rect x="260" y="260" width="20" height="230" fill="#61473F" />
<rect x="280" y="260" width="540" height="210" fill="#966F62" />
<rect x="820" y="260" width="20" height="230" fill="#61473F" />
<rect x="840" y="260" width="340" height="210" fill="#966F62" />
<rect x="1180" y="260" width="20" height="230" fill="#61473F" />
<rect x="1200" y="260" width="720" height="210" fill="#966F62" />
<rect x="0" y="470" width="260" height="20" fill="#61473F" />
<rect x="280" y="470" width="540" height="20" fill="#61473F" />
<rect x="840" y="470" width="340" height="20" fill="#61473F" />
<rect x="1200" y="470" width="720" height="20" fill="#61473F" />
<rect x="0" y="490" width="80" height="160" fill="#966F62" />
<rect x="80" y="490" width="20" height="180" fill="#61473F" />
<rect x="100" y="490" width="320" height="160" fill="#966F62" />
<rect x="420" y="490" width="20" height="180" fill="#61473F" />
<rect x="440" y="490" width="420" height="160" fill="#966F62" />
<rect x="860" y="490" width="20" height="180" fill="#61473F" />
<rect x="880" y="490" width="460" height="160" fill="#966F62" />
<rect x="1340" y="490" width="20" height="180" fill="#61473F" />
<rect x="1360" y="490" width="320" height="160" fill="#966F62" />
<rect x="1680" y="490" width="20" height="180" fill="#61473F" />
<rect x="1700" y="490" width="220" height="160" fill="#966F62" />
<rect x="0" y="650" width="80" height="20" fill="#61473F" />
<rect x="100" y="650" width="320" height="20" fill="#61473F" />
<rect x="440" y="650" width="420" height="20" fill="#61473F" />
<rect x="880" y="650" width="460" height="20" fill="#61473F" />
<rect x="1360" y="650" width="320" height="20" fill="#61473F" />
<rect x="1700" y="650" width="220" height="20" fill="#61473F" />
<rect x="0" y="670" width="10" height="210" fill="#61473F" />
<rect x="10" y="670" width="360" height="190" fill="#966F62" />
<rect x="370" y="670" width="20" height="210" fill="#61473F" />
<rect x="390" y="670" width="340" height="190" fill="#966F62" />
<rect x="730" y="670" width="20" height="210" fill="#61473F" />
<rect x="750" y="670" width="390" height="190" fill="#966F62" />
<rect x="1140" y="670" width="20" height="210" fill="#61473F" />
<rect x="1160" y="670" width="280" height="190" fill="#966F62" />
<rect x="1440" y="670" width="20" height="210" fill="#61473F" />
<rect x="1460" y="670" width="450" height="190" fill="#966F62" />
<rect x="1910" y="670" width="10" height="210" fill="#61473F" />
<rect x="10" y="860" width="360" height="20" fill="#61473F" />
<rect x="390" y="860" width="340" height="20" fill="#61473F" />
<rect x="750" y="860" width="390" height="20" fill="#61473F" />
<rect x="1160" y="860" width="280" height="20" fill="#61473F" />
<rect x="1460" y="860" width="450" height="20" fill="#61473F" />
<rect x="0" y="880" width="230" height="190" fill="#966F62" />
<rect x="230" y="880" width="20" height="200" fill="#61473F" />
<rect x="250" y="880" width="350" height="190" fill="#966F62" />
<rect x="600" y="880" width="20" height="200" fill="#61473F" />
<rect x="620" y="880" width="330" height="190" fill="#966F62" />
<rect x="950" y="880" width="20" height="200" fill="#61473F" />
<rect x="970" y="880" width="350" height="190" fill="#966F62" />
<rect x="1320" y="880" width="20" height="200" fill="#61473F" />
<rect x="1340" y="880" width="440" height="190" fill="#966F62" />
<rect x="1780" y="880" width="20" height="200" fill="#61473F" />
<rect x="1800" y="880" width="120" height="190" fill="#966F62" />
<rect x="0" y="1070" width="230" height="10" fill="#61473F" />
<rect x="250" y="1070" width="350" height="10" fill="#61473F" />
<rect x="620" y="1070" width="330" height="10" fill="#61473F" />
<rect x="970" y="1070" width="350" height="10" fill="#61473F" />
<rect x="1340" y="1070" width="440" height="10" fill="#61473F" />
<rect x="1800" y="1070" width="120" height="10" fill="#61473F" />
</svg>