<?xml version="1.0" encoding="UTF-8" ?>
<svg version="1.1" width="400" height="1080" xmlns="http://www.w3.org/2000/svg" shape-rendering="crispEdges">
<rect x="170" y="230" width="40" height="10" fill="#120F2D" />
<rect x="320" y="230" width="40" height="10" fill="#120F2D" />
<rect x="170" y="240" width="10" height="80" fill="#120F2D" />
<rect x="180" y="240" width="20" height="20" fill="#31297D" />
<rect x="200" y="240" width="10" height="60" fill="#120F2D" />
<rect x="220" y="240" width="90" height="10" fill="#120F2D" />
<rect x="320" y="240" width="10" height="60" fill="#120F2D" />
<rect x="330" y="240" width="20" height="20" fill="#31297D" />
<rect x="350" y="240" width="10" height="80" fill="#120F2D" />
<rect x="80" y="250" width="30" height="10" fill="#FFEE50" />
<rect x="210" y="250" width="10" height="10" fill="#120F2D" />
<rect x="220" y="250" width="90" height="10" fill="#31297D" />
<rect x="310" y="250" width="10" height="10" fill="#120F2D" />
<rect x="70" y="260" width="10" height="40" fill="#FFEE50" />
<rect x="80" y="260" width="30" height="10" fill="#FFD200" />
<rect x="110" y="260" width="10" height="40" fill="#FFEE50" />
<rect x="180" y="260" width="20" height="10" fill="#120F2D" />
<rect x="210" y="260" width="10" height="10" fill="#31297D" />
<rect x="220" y="260" width="90" height="10" fill="#120F2D" />
<rect x="310" y="260" width="10" height="10" fill="#31297D" />
<rect x="330" y="260" width="20" height="10" fill="#120F2D" />
<rect x="80" y="270" width="30" height="10" fill="#FFEE50" />
<rect x="180" y="270" width="20" height="40" fill="#211C55" />
<rect x="210" y="270" width="10" height="10" fill="#120F2D" />
<rect x="220" y="270" width="90" height="20" fill="#211C55" />
<rect x="310" y="270" width="10" height="10" fill="#120F2D" />
<rect x="330" y="270" width="20" height="40" fill="#211C55" />
<rect x="80" y="280" width="30" height="10" fill="#FFD200" />
<rect x="210" y="280" width="10" height="10" fill="#211C55" />
<rect x="310" y="280" width="10" height="10" fill="#211C55" />
<rect x="80" y="290" width="30" height="10" fill="#FFEE50" />
<rect x="210" y="290" width="110" height="10" fill="#595151" />
<rect x="90" y="300" width="10" height="40" fill="#281E13" />
<rect x="200" y="300" width="10" height="50" fill="#595151" />
<rect x="210" y="300" width="110" height="10" fill="#D7C5C5" />
<rect x="320" y="300" width="10" height="50" fill="#595151" />
<rect x="30" y="310" width="60" height="10" fill="#1C0F0F" />
<rect x="100" y="310" width="60" height="10" fill="#1C0F0F" />
<rect x="180" y="310" width="20" height="10" fill="#120F2D" />
<rect x="210" y="310" width="10" height="20" fill="#D7C5C5" />
<rect x="220" y="310" width="90" height="30" fill="#E7D4D4" />
<rect x="310" y="310" width="10" height="20" fill="#D7C5C5" />
<rect x="330" y="310" width="20" height="10" fill="#120F2D" />
<rect x="30" y="320" width="10" height="40" fill="#1C0F0F" />
<rect x="40" y="320" width="50" height="10" fill="#593131" />
<rect x="100" y="320" width="50" height="10" fill="#593131" />
<rect x="150" y="320" width="10" height="40" fill="#1C0F0F" />
<rect x="170" y="320" width="10" height="160" fill="#411212" />
<rect x="180" y="320" width="20" height="30" fill="#8A2424" />
<rect x="330" y="320" width="20" height="30" fill="#8A2424" />
<rect x="350" y="320" width="10" height="160" fill="#411212" />
<rect x="40" y="330" width="40" height="20" fill="#593131" />
<rect x="80" y="330" width="10" height="10" fill="#281E13" />
<rect x="100" y="330" width="10" height="10" fill="#281E13" />
<rect x="110" y="330" width="40" height="20" fill="#593131" />
<rect x="210" y="330" width="10" height="20" fill="#BEACAC" />
<rect x="310" y="330" width="10" height="20" fill="#BEACAC" />
<rect x="80" y="340" width="30" height="10" fill="#593131" />
<rect x="220" y="340" width="90" height="10" fill="#BEACAC" />
<rect x="40" y="350" width="110" height="10" fill="#1C0F0F" />
<rect x="180" y="350" width="10" height="130" fill="#8A2424" />
<rect x="190" y="350" width="10" height="120" fill="#AC3232" />
<rect x="200" y="350" width="10" height="10" fill="#8A2424" />
<rect x="210" y="350" width="110" height="10" fill="#595151" />
<rect x="320" y="350" width="10" height="10" fill="#8A2424" />
<rect x="330" y="350" width="10" height="120" fill="#AC3232" />
<rect x="340" y="350" width="10" height="130" fill="#8A2424" />
<rect x="40" y="360" width="10" height="40" fill="#1C0F0F" />
<rect x="50" y="360" width="90" height="30" fill="#2D1818" />
<rect x="140" y="360" width="10" height="40" fill="#1C0F0F" />
<rect x="200" y="360" width="10" height="110" fill="#AC3232" />
<rect x="210" y="360" width="110" height="10" fill="#8A2424" />
<rect x="320" y="360" width="10" height="110" fill="#AC3232" />
<rect x="210" y="370" width="110" height="100" fill="#AC3232" />
<rect x="50" y="390" width="90" height="10" fill="#1C0F0F" />
<rect x="190" y="470" width="150" height="10" fill="#8A2424" />
<rect x="170" y="480" width="40" height="10" fill="#120F2D" />
<rect x="210" y="480" width="10" height="10" fill="#8A2424" />
<rect x="220" y="480" width="90" height="10" fill="#120F2D" />
<rect x="310" y="480" width="10" height="10" fill="#8A2424" />
<rect x="320" y="480" width="40" height="10" fill="#120F2D" />
<rect x="170" y="490" width="10" height="70" fill="#120F2D" />
<rect x="180" y="490" width="20" height="20" fill="#31297D" />
<rect x="200" y="490" width="20" height="10" fill="#120F2D" />
<rect x="220" y="490" width="90" height="10" fill="#31297D" />
<rect x="310" y="490" width="20" height="10" fill="#120F2D" />
<rect x="330" y="490" width="20" height="20" fill="#31297D" />
<rect x="350" y="490" width="10" height="70" fill="#120F2D" />
<rect x="200" y="500" width="10" height="60" fill="#120F2D" />
<rect x="210" y="500" width="10" height="10" fill="#31297D" />
<rect x="220" y="500" width="90" height="10" fill="#120F2D" />
<rect x="310" y="500" width="10" height="10" fill="#31297D" />
<rect x="320" y="500" width="10" height="60" fill="#120F2D" />
<rect x="180" y="510" width="20" height="10" fill="#120F2D" />
<rect x="210" y="510" width="10" height="10" fill="#120F2D" />
<rect x="220" y="510" width="90" height="40" fill="#211C55" />
<rect x="310" y="510" width="10" height="10" fill="#120F2D" />
<rect x="330" y="510" width="20" height="10" fill="#120F2D" />
<rect x="180" y="520" width="20" height="30" fill="#211C55" />
<rect x="210" y="520" width="10" height="30" fill="#211C55" />
<rect x="310" y="520" width="10" height="30" fill="#211C55" />
<rect x="330" y="520" width="20" height="30" fill="#211C55" />
<rect x="180" y="550" width="20" height="10" fill="#120F2D" />
<rect x="210" y="550" width="110" height="10" fill="#120F2D" />
<rect x="330" y="550" width="20" height="10" fill="#120F2D" />
<rect x="90" y="670" width="50" height="10" fill="#174130" />
<rect x="170" y="670" width="50" height="10" fill="#174130" />
<rect x="250" y="670" width="40" height="10" fill="#174130" />
<rect x="90" y="680" width="10" height="30" fill="#174130" />
<rect x="100" y="680" width="30" height="50" fill="#37946E" />
<rect x="130" y="680" width="10" height="30" fill="#174130" />
<rect x="170" y="680" width="10" height="30" fill="#174130" />
<rect x="180" y="680" width="30" height="50" fill="#37946E" />
<rect x="210" y="680" width="10" height="30" fill="#174130" />
<rect x="250" y="680" width="10" height="30" fill="#174130" />
<rect x="260" y="680" width="20" height="240" fill="#37946E" />
<rect x="280" y="680" width="10" height="30" fill="#174130" />
<rect x="60" y="700" width="30" height="10" fill="#174130" />
<rect x="140" y="700" width="30" height="10" fill="#174130" />
<rect x="220" y="700" width="30" height="10" fill="#174130" />
<rect x="290" y="700" width="30" height="10" fill="#174130" />
<rect x="60" y="710" width="10" height="40" fill="#174130" />
<rect x="70" y="710" width="30" height="30" fill="#37946E" />
<rect x="130" y="710" width="50" height="20" fill="#37946E" />
<rect x="210" y="710" width="50" height="20" fill="#37946E" />
<rect x="280" y="710" width="30" height="30" fill="#37946E" />
<rect x="310" y="710" width="10" height="40" fill="#174130" />
<rect x="100" y="730" width="20" height="190" fill="#37946E" />
<rect x="120" y="730" width="30" height="40" fill="#6ABE30" />
<rect x="150" y="730" width="20" height="10" fill="#37946E" />
<rect x="170" y="730" width="40" height="140" fill="#6ABE30" />
<rect x="210" y="730" width="20" height="10" fill="#37946E" />
<rect x="230" y="730" width="30" height="40" fill="#6ABE30" />
<rect x="70" y="740" width="30" height="10" fill="#174130" />
<rect x="150" y="740" width="20" height="120" fill="#6ABE30" />
<rect x="210" y="740" width="20" height="120" fill="#6ABE30" />
<rect x="280" y="740" width="30" height="10" fill="#174130" />
<rect x="90" y="750" width="10" height="30" fill="#174130" />
<rect x="280" y="750" width="10" height="30" fill="#174130" />
<rect x="60" y="770" width="30" height="10" fill="#174130" />
<rect x="120" y="770" width="10" height="20" fill="#37946E" />
<rect x="130" y="770" width="20" height="90" fill="#6ABE30" />
<rect x="230" y="770" width="20" height="90" fill="#6ABE30" />
<rect x="250" y="770" width="10" height="20" fill="#37946E" />
<rect x="290" y="770" width="30" height="10" fill="#174130" />
<rect x="60" y="780" width="10" height="40" fill="#174130" />
<rect x="70" y="780" width="30" height="30" fill="#37946E" />
<rect x="280" y="780" width="30" height="30" fill="#37946E" />
<rect x="310" y="780" width="10" height="40" fill="#174130" />
<rect x="120" y="790" width="10" height="30" fill="#6ABE30" />
<rect x="250" y="790" width="10" height="30" fill="#6ABE30" />
<rect x="70" y="810" width="30" height="10" fill="#174130" />
<rect x="280" y="810" width="30" height="10" fill="#174130" />
<rect x="90" y="820" width="10" height="40" fill="#174130" />
<rect x="120" y="820" width="10" height="20" fill="#37946E" />
<rect x="250" y="820" width="10" height="20" fill="#37946E" />
<rect x="280" y="820" width="10" height="40" fill="#174130" />
<rect x="120" y="840" width="10" height="30" fill="#6ABE30" />
<rect x="250" y="840" width="10" height="30" fill="#6ABE30" />
<rect x="60" y="850" width="30" height="10" fill="#174130" />
<rect x="290" y="850" width="30" height="10" fill="#174130" />
<rect x="60" y="860" width="10" height="40" fill="#174130" />
<rect x="70" y="860" width="30" height="30" fill="#37946E" />
<rect x="130" y="860" width="10" height="10" fill="#6ABE30" />
<rect x="140" y="860" width="30" height="30" fill="#37946E" />
<rect x="210" y="860" width="30" height="30" fill="#37946E" />
<rect x="240" y="860" width="10" height="10" fill="#6ABE30" />
<rect x="280" y="860" width="30" height="30" fill="#37946E" />
<rect x="310" y="860" width="10" height="40" fill="#174130" />
<rect x="120" y="870" width="20" height="20" fill="#37946E" />
<rect x="170" y="870" width="40" height="20" fill="#37946E" />
<rect x="240" y="870" width="20" height="20" fill="#37946E" />
<rect x="70" y="890" width="30" height="10" fill="#174130" />
<rect x="120" y="890" width="10" height="30" fill="#37946E" />
<rect x="130" y="890" width="50" height="10" fill="#174130" />
<rect x="180" y="890" width="30" height="30" fill="#37946E" />
<rect x="210" y="890" width="50" height="10" fill="#174130" />
<rect x="280" y="890" width="30" height="10" fill="#174130" />
<rect x="90" y="900" width="10" height="30" fill="#174130" />
<rect x="130" y="900" width="10" height="30" fill="#174130" />
<rect x="170" y="900" width="10" height="30" fill="#174130" />
<rect x="210" y="900" width="10" height="30" fill="#174130" />
<rect x="250" y="900" width="10" height="30" fill="#174130" />
<rect x="280" y="900" width="10" height="30" fill="#174130" />
<rect x="100" y="920" width="30" height="10" fill="#174130" />
<rect x="180" y="920" width="30" height="10" fill="#174130" />
<rect x="260" y="920" width="20" height="10" fill="#174130" />
</svg>