<?xml version="1.0" encoding="UTF-8" ?>
<svg version="1.1" width="570" height="1080" xmlns="http://www.w3.org/2000/svg" shape-rendering="crispEdges">
<rect x="90" y="30" width="60" height="10" fill="#282828" />
<rect x="210" y="30" width="150" height="10" fill="#000000" />
<rect x="390" y="30" width="70" height="10" fill="#000000" />
<rect x="30" y="40" width="60" height="10" fill="#41413D" />
<rect x="90" y="40" width="10" height="30" fill="#282828" />
<rect x="100" y="40" width="40" height="30" fill="#717171" />
<rect x="140" y="40" width="10" height="30" fill="#282828" />
<rect x="150" y="40" width="60" height="10" fill="#41413D" />
<rect x="210" y="40" width="10" height="100" fill="#000000" />
<rect x="220" y="40" width="130" height="10" fill="#141414" />
<rect x="350" y="40" width="10" height="100" fill="#000000" />
<rect x="360" y="40" width="30" height="10" fill="#41413D" />
<rect x="390" y="40" width="10" height="130" fill="#000000" />
<rect x="400" y="40" width="50" height="10" fill="#141414" />
<rect x="450" y="40" width="10" height="130" fill="#000000" />
<rect x="460" y="40" width="20" height="10" fill="#41413D" />
<rect x="30" y="50" width="10" height="170" fill="#41413D" />
<rect x="40" y="50" width="50" height="10" fill="#CACAC8" />
<rect x="150" y="50" width="60" height="10" fill="#CACAC8" />
<rect x="220" y="50" width="10" height="80" fill="#141414" />
<rect x="230" y="50" width="110" height="10" fill="#000000" />
<rect x="340" y="50" width="10" height="80" fill="#141414" />
<rect x="360" y="50" width="30" height="10" fill="#CACAC8" />
<rect x="400" y="50" width="20" height="10" fill="#141414" />
<rect x="420" y="50" width="20" height="10" fill="#040404" />
<rect x="440" y="50" width="10" height="10" fill="#141414" />
<rect x="460" y="50" width="10" height="170" fill="#CACAC8" />
<rect x="470" y="50" width="10" height="170" fill="#41413D" />
<rect x="40" y="60" width="10" height="160" fill="#CACAC8" />
<rect x="50" y="60" width="40" height="10" fill="#DFDFDC" />
<rect x="150" y="60" width="60" height="10" fill="#DFDFDC" />
<rect x="230" y="60" width="10" height="60" fill="#000000" />
<rect x="240" y="60" width="90" height="50" fill="#E4E5EB" />
<rect x="330" y="60" width="10" height="60" fill="#000000" />
<rect x="360" y="60" width="30" height="70" fill="#DFDFDC" />
<rect x="400" y="60" width="10" height="20" fill="#191441" />
<rect x="410" y="60" width="30" height="10" fill="#141414" />
<rect x="440" y="60" width="10" height="20" fill="#191441" />
<rect x="50" y="70" width="20" height="140" fill="#DFDFDC" />
<rect x="70" y="70" width="100" height="10" fill="#141414" />
<rect x="170" y="70" width="40" height="140" fill="#DFDFDC" />
<rect x="410" y="70" width="30" height="10" fill="#191441" />
<rect x="70" y="80" width="10" height="30" fill="#141414" />
<rect x="80" y="80" width="80" height="20" fill="#2D2D2D" />
<rect x="160" y="80" width="10" height="30" fill="#141414" />
<rect x="400" y="80" width="10" height="10" fill="#FF0000" />
<rect x="410" y="80" width="10" height="10" fill="#141414" />
<rect x="420" y="80" width="10" height="10" fill="#191441" />
<rect x="430" y="80" width="10" height="10" fill="#141414" />
<rect x="440" y="80" width="10" height="10" fill="#FF0000" />
<rect x="400" y="90" width="10" height="10" fill="#FF7E00" />
<rect x="410" y="90" width="10" height="10" fill="#191441" />
<rect x="420" y="90" width="10" height="10" fill="#141414" />
<rect x="430" y="90" width="10" height="10" fill="#191441" />
<rect x="440" y="90" width="10" height="10" fill="#FF7E00" />
<rect x="80" y="100" width="80" height="10" fill="#141414" />
<rect x="400" y="100" width="10" height="10" fill="#FFBD00" />
<rect x="410" y="100" width="10" height="10" fill="#141414" />
<rect x="420" y="100" width="10" height="10" fill="#191441" />
<rect x="430" y="100" width="10" height="10" fill="#141414" />
<rect x="440" y="100" width="10" height="10" fill="#FFBD00" />
<rect x="70" y="110" width="10" height="30" fill="#1C1C1C" />
<rect x="80" y="110" width="80" height="20" fill="#494949" />
<rect x="160" y="110" width="10" height="30" fill="#1C1C1C" />
<rect x="240" y="110" width="90" height="10" fill="#000000" />
<rect x="400" y="110" width="10" height="10" fill="#D9FF00" />
<rect x="410" y="110" width="10" height="10" fill="#191441" />
<rect x="420" y="110" width="10" height="10" fill="#141414" />
<rect x="430" y="110" width="10" height="10" fill="#191441" />
<rect x="440" y="110" width="10" height="10" fill="#D9FF00" />
<rect x="230" y="120" width="110" height="10" fill="#141414" />
<rect x="400" y="120" width="10" height="10" fill="#31FF00" />
<rect x="410" y="120" width="10" height="10" fill="#141414" />
<rect x="420" y="120" width="10" height="10" fill="#191441" />
<rect x="430" y="120" width="10" height="10" fill="#141414" />
<rect x="440" y="120" width="10" height="10" fill="#31FF00" />
<rect x="80" y="130" width="80" height="10" fill="#1C1C1C" />
<rect x="220" y="130" width="130" height="10" fill="#000000" />
<rect x="360" y="130" width="30" height="10" fill="#090A20" />
<rect x="400" y="130" width="10" height="10" fill="#00FF77" />
<rect x="410" y="130" width="10" height="10" fill="#191441" />
<rect x="420" y="130" width="10" height="10" fill="#141414" />
<rect x="430" y="130" width="10" height="10" fill="#191441" />
<rect x="440" y="130" width="10" height="10" fill="#00FF77" />
<rect x="70" y="140" width="100" height="20" fill="#DFDFDC" />
<rect x="210" y="140" width="70" height="10" fill="#DFDFDC" />
<rect x="280" y="140" width="30" height="20" fill="#000000" />
<rect x="310" y="140" width="30" height="10" fill="#DFDFDC" />
<rect x="340" y="140" width="10" height="20" fill="#090A20" />
<rect x="350" y="140" width="40" height="20" fill="#1E2379" />
<rect x="400" y="140" width="10" height="10" fill="#00FFF5" />
<rect x="410" y="140" width="10" height="20" fill="#141414" />
<rect x="420" y="140" width="10" height="10" fill="#191441" />
<rect x="430" y="140" width="10" height="20" fill="#141414" />
<rect x="440" y="140" width="10" height="10" fill="#00FFF5" />
<rect x="210" y="150" width="10" height="60" fill="#DFDFDC" />
<rect x="220" y="150" width="60" height="10" fill="#101324" />
<rect x="310" y="150" width="30" height="10" fill="#101324" />
<rect x="400" y="150" width="10" height="10" fill="#141414" />
<rect x="420" y="150" width="10" height="10" fill="#141414" />
<rect x="440" y="150" width="10" height="10" fill="#141414" />
<rect x="70" y="160" width="20" height="50" fill="#DFDFDC" />
<rect x="90" y="160" width="70" height="10" fill="#004D4A" />
<rect x="160" y="160" width="10" height="50" fill="#DFDFDC" />
<rect x="220" y="160" width="10" height="30" fill="#101324" />
<rect x="230" y="160" width="130" height="10" fill="#310000" />
<rect x="360" y="160" width="10" height="20" fill="#131314" />
<rect x="370" y="160" width="20" height="20" fill="#1E2379" />
<rect x="400" y="160" width="50" height="10" fill="#000000" />
<rect x="90" y="170" width="10" height="40" fill="#004D4A" />
<rect x="100" y="170" width="50" height="30" fill="#00D7CE" />
<rect x="150" y="170" width="10" height="40" fill="#004D4A" />
<rect x="230" y="170" width="10" height="100" fill="#310000" />
<rect x="240" y="170" width="110" height="10" fill="#282828" />
<rect x="350" y="170" width="10" height="100" fill="#310000" />
<rect x="390" y="170" width="10" height="20" fill="#090A20" />
<rect x="400" y="170" width="60" height="40" fill="#DFDFDC" />
<rect x="240" y="180" width="10" height="90" fill="#282828" />
<rect x="250" y="180" width="20" height="10" fill="#350C0C" />
<rect x="270" y="180" width="10" height="10" fill="#282828" />
<rect x="280" y="180" width="30" height="10" fill="#350C0C" />
<rect x="310" y="180" width="10" height="10" fill="#282828" />
<rect x="320" y="180" width="20" height="10" fill="#350C0C" />
<rect x="340" y="180" width="10" height="90" fill="#282828" />
<rect x="360" y="180" width="30" height="10" fill="#090A20" />
<rect x="220" y="190" width="10" height="20" fill="#DFDFDC" />
<rect x="250" y="190" width="10" height="20" fill="#350C0C" />
<rect x="260" y="190" width="70" height="70" fill="#353535" />
<rect x="330" y="190" width="10" height="20" fill="#350C0C" />
<rect x="360" y="190" width="40" height="10" fill="#DFDFDC" />
<rect x="100" y="200" width="50" height="10" fill="#004D4A" />
<rect x="360" y="200" width="10" height="20" fill="#CACAC8" />
<rect x="370" y="200" width="30" height="10" fill="#DFDFDC" />
<rect x="50" y="210" width="180" height="10" fill="#CACAC8" />
<rect x="250" y="210" width="10" height="10" fill="#282828" />
<rect x="330" y="210" width="10" height="10" fill="#282828" />
<rect x="370" y="210" width="90" height="10" fill="#CACAC8" />
<rect x="30" y="220" width="160" height="10" fill="#31312E" />
<rect x="190" y="220" width="40" height="10" fill="#41413D" />
<rect x="250" y="220" width="10" height="20" fill="#350C0C" />
<rect x="330" y="220" width="10" height="20" fill="#350C0C" />
<rect x="360" y="220" width="50" height="10" fill="#41413D" />
<rect x="410" y="220" width="70" height="10" fill="#31312E" />
<rect x="30" y="230" width="10" height="100" fill="#31312E" />
<rect x="40" y="230" width="140" height="10" fill="#696965" />
<rect x="180" y="230" width="10" height="100" fill="#31312E" />
<rect x="410" y="230" width="10" height="90" fill="#31312E" />
<rect x="420" y="230" width="50" height="10" fill="#696965" />
<rect x="470" y="230" width="10" height="90" fill="#31312E" />
<rect x="40" y="240" width="140" height="10" fill="#82827C" />
<rect x="220" y="240" width="10" height="50" fill="#200000" />
<rect x="250" y="240" width="10" height="10" fill="#353535" />
<rect x="330" y="240" width="10" height="10" fill="#353535" />
<rect x="360" y="240" width="10" height="50" fill="#200000" />
<rect x="420" y="240" width="50" height="10" fill="#82827C" />
<rect x="40" y="250" width="10" height="70" fill="#82827C" />
<rect x="50" y="250" width="10" height="60" fill="#9A9A93" />
<rect x="60" y="250" width="100" height="10" fill="#20201E" />
<rect x="160" y="250" width="10" height="60" fill="#9A9A93" />
<rect x="170" y="250" width="10" height="70" fill="#82827C" />
<rect x="250" y="250" width="10" height="10" fill="#350C0C" />
<rect x="330" y="250" width="10" height="10" fill="#350C0C" />
<rect x="420" y="250" width="10" height="60" fill="#82827C" />
<rect x="430" y="250" width="30" height="50" fill="#9A9A93" />
<rect x="460" y="250" width="10" height="60" fill="#82827C" />
<rect x="60" y="260" width="10" height="50" fill="#20201E" />
<rect x="70" y="260" width="80" height="40" fill="#7D7D77" />
<rect x="150" y="260" width="10" height="50" fill="#20201E" />
<rect x="250" y="260" width="90" height="10" fill="#282828" />
<rect x="230" y="270" width="130" height="10" fill="#200000" />
<rect x="230" y="280" width="30" height="10" fill="#282828" />
<rect x="260" y="280" width="20" height="10" fill="#200000" />
<rect x="280" y="280" width="30" height="10" fill="#282828" />
<rect x="310" y="280" width="20" height="10" fill="#200000" />
<rect x="330" y="280" width="30" height="10" fill="#282828" />
<rect x="220" y="290" width="140" height="10" fill="#140000" />
<rect x="70" y="300" width="80" height="10" fill="#20201E" />
<rect x="230" y="300" width="10" height="20" fill="#140000" />
<rect x="240" y="300" width="110" height="10" fill="#282828" />
<rect x="350" y="300" width="10" height="20" fill="#140000" />
<rect x="430" y="300" width="30" height="10" fill="#82827C" />
<rect x="50" y="310" width="120" height="10" fill="#8A8A84" />
<rect x="240" y="310" width="110" height="10" fill="#140000" />
<rect x="420" y="310" width="50" height="10" fill="#31312E" />
<rect x="40" y="320" width="140" height="10" fill="#31312E" />
<rect x="260" y="320" width="20" height="20" fill="#181818" />
<rect x="310" y="320" width="20" height="20" fill="#181818" />
<rect x="200" y="490" width="180" height="10" fill="#2D1F15" />
<rect x="200" y="500" width="10" height="240" fill="#2D1F15" />
<rect x="210" y="500" width="160" height="60" fill="#795237" />
<rect x="370" y="500" width="10" height="240" fill="#2D1F15" />
<rect x="210" y="560" width="160" height="10" fill="#2D1F15" />
<rect x="210" y="570" width="160" height="20" fill="#553925" />
<rect x="210" y="590" width="10" height="140" fill="#553925" />
<rect x="220" y="590" width="20" height="30" fill="#862323" />
<rect x="240" y="590" width="20" height="30" fill="#2380B6" />
<rect x="260" y="590" width="20" height="30" fill="#B6B423" />
<rect x="280" y="590" width="20" height="30" fill="#344540" />
<rect x="300" y="590" width="20" height="30" fill="#7E5A96" />
<rect x="320" y="590" width="20" height="30" fill="#7D7446" />
<rect x="340" y="590" width="20" height="30" fill="#344145" />
<rect x="360" y="590" width="10" height="140" fill="#553925" />
<rect x="220" y="620" width="140" height="10" fill="#2D1F15" />
<rect x="220" y="630" width="140" height="10" fill="#553925" />
<rect x="220" y="640" width="20" height="30" fill="#464E7D" />
<rect x="240" y="640" width="20" height="30" fill="#CA8B11" />
<rect x="260" y="640" width="20" height="30" fill="#96732F" />
<rect x="280" y="640" width="20" height="30" fill="#C65631" />
<rect x="300" y="640" width="20" height="30" fill="#A33FFF" />
<rect x="320" y="640" width="20" height="30" fill="#86102D" />
<rect x="340" y="640" width="20" height="30" fill="#512828" />
<rect x="220" y="670" width="140" height="10" fill="#2D1F15" />
<rect x="220" y="680" width="140" height="10" fill="#553925" />
<rect x="220" y="690" width="10" height="20" fill="#080808" />
<rect x="230" y="690" width="10" height="20" fill="#13536D" />
<rect x="240" y="690" width="10" height="20" fill="#136D18" />
<rect x="250" y="690" width="10" height="20" fill="#0D4D10" />
<rect x="260" y="690" width="10" height="20" fill="#215B5D" />
<rect x="270" y="690" width="10" height="20" fill="#222828" />
<rect x="280" y="690" width="10" height="20" fill="#0F101C" />
<rect x="290" y="690" width="10" height="20" fill="#251039" />
<rect x="300" y="690" width="10" height="20" fill="#586161" />
<rect x="310" y="690" width="10" height="20" fill="#0F1A1C" />
<rect x="320" y="690" width="10" height="20" fill="#18492B" />
<rect x="330" y="690" width="10" height="20" fill="#392D22" />
<rect x="340" y="690" width="10" height="20" fill="#22392B" />
<rect x="350" y="690" width="10" height="20" fill="#848D8E" />
<rect x="220" y="710" width="140" height="10" fill="#2D1F15" />
<rect x="220" y="720" width="140" height="10" fill="#553925" />
<rect x="210" y="730" width="160" height="10" fill="#2D1F15" />
<rect x="450" y="750" width="100" height="10" fill="#2D1F15" />
<rect x="450" y="760" width="10" height="240" fill="#2D1F15" />
<rect x="460" y="760" width="80" height="60" fill="#795237" />
<rect x="540" y="760" width="10" height="240" fill="#2D1F15" />
<rect x="170" y="790" width="230" height="10" fill="#201515" />
<rect x="170" y="800" width="10" height="120" fill="#201515" />
<rect x="180" y="800" width="210" height="10" fill="#4D3434" />
<rect x="390" y="800" width="10" height="120" fill="#201515" />
<rect x="20" y="810" width="30" height="10" fill="#2D2217" />
<rect x="180" y="810" width="30" height="80" fill="#4D3434" />
<rect x="210" y="810" width="90" height="10" fill="#0D1151" />
<rect x="300" y="810" width="90" height="80" fill="#4D3434" />
<rect x="20" y="820" width="10" height="120" fill="#2D2217" />
<rect x="30" y="820" width="10" height="60" fill="#614529" />
<rect x="40" y="820" width="10" height="120" fill="#2D2217" />
<rect x="210" y="820" width="10" height="50" fill="#0D1151" />
<rect x="220" y="820" width="20" height="40" fill="#CBDBFC" />
<rect x="240" y="820" width="10" height="60" fill="#AC3232" />
<rect x="250" y="820" width="10" height="50" fill="#0D1151" />
<rect x="260" y="820" width="30" height="40" fill="#CBDBFC" />
<rect x="290" y="820" width="10" height="50" fill="#0D1151" />
<rect x="460" y="820" width="80" height="10" fill="#2D1F15" />
<rect x="460" y="830" width="80" height="160" fill="#553925" />
<rect x="50" y="860" width="70" height="10" fill="#2D2217" />
<rect x="220" y="860" width="20" height="10" fill="#0D1151" />
<rect x="260" y="860" width="30" height="10" fill="#0D1151" />
<rect x="50" y="870" width="60" height="40" fill="#614529" />
<rect x="110" y="870" width="10" height="70" fill="#2D2217" />
<rect x="210" y="870" width="30" height="20" fill="#4D3434" />
<rect x="250" y="870" width="50" height="20" fill="#4D3434" />
<rect x="30" y="880" width="10" height="10" fill="#2D2217" />
<rect x="240" y="880" width="10" height="10" fill="#4D3434" />
<rect x="30" y="890" width="10" height="20" fill="#614529" />
<rect x="180" y="890" width="210" height="10" fill="#392323" />
<rect x="180" y="900" width="210" height="10" fill="#4D3434" />
<rect x="30" y="910" width="10" height="10" fill="#2D2217" />
<rect x="50" y="910" width="60" height="10" fill="#2D2217" />
<rect x="180" y="910" width="210" height="10" fill="#201515" />
<rect x="30" y="920" width="10" height="20" fill="#614529" />
<rect x="90" y="920" width="10" height="20" fill="#2D2217" />
<rect x="100" y="920" width="10" height="20" fill="#614529" />
<rect x="170" y="920" width="10" height="50" fill="#140D0D" />
<rect x="180" y="920" width="30" height="40" fill="#2D1D1D" />
<rect x="210" y="920" width="10" height="50" fill="#140D0D" />
<rect x="220" y="920" width="130" height="20" fill="#2D1D1D" />
<rect x="350" y="920" width="10" height="50" fill="#140D0D" />
<rect x="360" y="920" width="30" height="40" fill="#2D1D1D" />
<rect x="390" y="920" width="10" height="50" fill="#140D0D" />
<rect x="30" y="940" width="10" height="10" fill="#2D2217" />
<rect x="100" y="940" width="10" height="10" fill="#2D2217" />
<rect x="220" y="940" width="130" height="10" fill="#140D0D" />
<rect x="180" y="960" width="30" height="10" fill="#140D0D" />
<rect x="360" y="960" width="30" height="10" fill="#140D0D" />
<rect x="460" y="990" width="80" height="10" fill="#2D1F15" />
</svg>