<?xml version="1.0" encoding="UTF-8" ?>
<svg version="1.1" width="64" height="64" xmlns="http://www.w3.org/2000/svg" shape-rendering="crispEdges">
<rect x="0" y="0" width="64" height="4" fill="#1C2F79" />
<rect x="0" y="4" width="28" height="2" fill="#1C2F79" />
<rect x="28" y="4" width="2" height="2" fill="#FFFFFF" />
<rect x="30" y="4" width="34" height="2" fill="#1C2F79" />
<rect x="0" y="6" width="6" height="2" fill="#1C2F79" />
<rect x="6" y="6" width="2" height="10" fill="#FFFFFF" />
<rect x="8" y="6" width="40" height="2" fill="#1C2F79" />
<rect x="48" y="6" width="2" height="6" fill="#FFFFFF" />
<rect x="50" y="6" width="14" height="2" fill="#1C2F79" />
<rect x="0" y="8" width="4" height="2" fill="#1C2F79" />
<rect x="4" y="8" width="2" height="6" fill="#FFFFFF" />
<rect x="8" y="8" width="2" height="6" fill="#FFFFFF" />
<rect x="10" y="8" width="36" height="2" fill="#1C2F79" />
<rect x="46" y="8" width="2" height="2" fill="#FFFFFF" />
<rect x="50" y="8" width="2" height="2" fill="#FFFFFF" />
<rect x="52" y="8" width="12" height="26" fill="#1C2F79" />
<rect x="0" y="10" width="2" height="54" fill="#1C2F79" />
<rect x="2" y="10" width="2" height="2" fill="#FFFFFF" />
<rect x="10" y="10" width="2" height="2" fill="#FFFFFF" />
<rect x="12" y="10" width="36" height="4" fill="#1C2F79" />
<rect x="50" y="10" width="2" height="44" fill="#1C2F79" />
<rect x="2" y="12" width="2" height="52" fill="#1C2F79" />
<rect x="10" y="12" width="2" height="40" fill="#1C2F79" />
<rect x="48" y="12" width="2" height="42" fill="#1C2F79" />
<rect x="4" y="14" width="2" height="50" fill="#1C2F79" />
<rect x="8" y="14" width="2" height="50" fill="#1C2F79" />
<rect x="12" y="14" width="14" height="2" fill="#1C2F79" />
<rect x="26" y="14" width="10" height="2" fill="#FFFFFF" />
<rect x="36" y="14" width="12" height="2" fill="#1C2F79" />
<rect x="6" y="16" width="2" height="18" fill="#1C2F79" />
<rect x="12" y="16" width="10" height="2" fill="#1C2F79" />
<rect x="22" y="16" width="4" height="2" fill="#FFFFFF" />
<rect x="26" y="16" width="10" height="2" fill="#000000" />
<rect x="36" y="16" width="4" height="2" fill="#FFFFFF" />
<rect x="40" y="16" width="8" height="2" fill="#1C2F79" />
<rect x="12" y="18" width="8" height="2" fill="#1C2F79" />
<rect x="20" y="18" width="2" height="2" fill="#FFFFFF" />
<rect x="22" y="18" width="4" height="2" fill="#000000" />
<rect x="26" y="18" width="2" height="4" fill="#B8BAC5" />
<rect x="28" y="18" width="4" height="2" fill="#9C9DA5" />
<rect x="32" y="18" width="2" height="2" fill="#B8BAC5" />
<rect x="34" y="18" width="2" height="2" fill="#9C9DA5" />
<rect x="36" y="18" width="4" height="4" fill="#000000" />
<rect x="40" y="18" width="2" height="2" fill="#FFFFFF" />
<rect x="42" y="18" width="6" height="2" fill="#1C2F79" />
<rect x="12" y="20" width="6" height="2" fill="#1C2F79" />
<rect x="18" y="20" width="2" height="2" fill="#FFFFFF" />
<rect x="20" y="20" width="2" height="2" fill="#000000" />
<rect x="22" y="20" width="4" height="2" fill="#9C9DA5" />
<rect x="28" y="20" width="2" height="2" fill="#C9CBD2" />
<rect x="30" y="20" width="2" height="2" fill="#9C9DA5" />
<rect x="32" y="20" width="4" height="2" fill="#000000" />
<rect x="40" y="20" width="2" height="4" fill="#000000" />
<rect x="42" y="20" width="2" height="2" fill="#FFFFFF" />
<rect x="44" y="20" width="4" height="2" fill="#1C2F79" />
<rect x="12" y="22" width="4" height="4" fill="#1C2F79" />
<rect x="16" y="22" width="2" height="4" fill="#FFFFFF" />
<rect x="18" y="22" width="2" height="4" fill="#000000" />
<rect x="20" y="22" width="4" height="2" fill="#B8BAC5" />
<rect x="24" y="22" width="4" height="2" fill="#C9CBD2" />
<rect x="28" y="22" width="2" height="2" fill="#B8BAC5" />
<rect x="30" y="22" width="2" height="2" fill="#000000" />
<rect x="32" y="22" width="4" height="2" fill="#0A175A" />
<rect x="36" y="22" width="4" height="2" fill="#0B1B73" />
<rect x="42" y="22" width="2" height="4" fill="#000000" />
<rect x="44" y="22" width="2" height="4" fill="#FFFFFF" />
<rect x="46" y="22" width="2" height="4" fill="#1C2F79" />
<rect x="20" y="24" width="2" height="4" fill="#9C9DA5" />
<rect x="22" y="24" width="4" height="2" fill="#C9CBD2" />
<rect x="26" y="24" width="2" height="2" fill="#B8BAC5" />
<rect x="28" y="24" width="2" height="2" fill="#000000" />
<rect x="30" y="24" width="2" height="2" fill="#0A175A" />
<rect x="32" y="24" width="2" height="2" fill="#0B1B73" />
<rect x="34" y="24" width="6" height="2" fill="#0022D2" />
<rect x="40" y="24" width="2" height="2" fill="#0A175A" />
<rect x="12" y="26" width="2" height="24" fill="#1C2F79" />
<rect x="14" y="26" width="2" height="10" fill="#FFFFFF" />
<rect x="16" y="26" width="2" height="10" fill="#000000" />
<rect x="18" y="26" width="2" height="4" fill="#B8BAC5" />
<rect x="22" y="26" width="2" height="4" fill="#C9CBD2" />
<rect x="24" y="26" width="2" height="2" fill="#B8BAC5" />
<rect x="26" y="26" width="2" height="10" fill="#000000" />
<rect x="28" y="26" width="2" height="10" fill="#0A175A" />
<rect x="30" y="26" width="2" height="2" fill="#0B1B73" />
<rect x="32" y="26" width="4" height="8" fill="#0022D2" />
<rect x="36" y="26" width="2" height="4" fill="#0066FF" />
<rect x="38" y="26" width="2" height="2" fill="#FFFFFF" />
<rect x="40" y="26" width="2" height="8" fill="#0022D2" />
<rect x="42" y="26" width="2" height="2" fill="#0A175A" />
<rect x="44" y="26" width="2" height="10" fill="#000000" />
<rect x="46" y="26" width="2" height="10" fill="#FFFFFF" />
<rect x="20" y="28" width="2" height="6" fill="#C9CBD2" />
<rect x="24" y="28" width="2" height="6" fill="#9C9DA5" />
<rect x="30" y="28" width="2" height="8" fill="#FFFFFF" />
<rect x="38" y="28" width="2" height="2" fill="#0066FF" />
<rect x="42" y="28" width="2" height="6" fill="#0B1B73" />
<rect x="18" y="30" width="2" height="6" fill="#9C9DA5" />
<rect x="22" y="30" width="2" height="2" fill="#9C9DA5" />
<rect x="36" y="30" width="4" height="6" fill="#0022D2" />
<rect x="22" y="32" width="2" height="2" fill="#B8BAC5" />
<rect x="6" y="34" width="2" height="2" fill="#FFFFFF" />
<rect x="20" y="34" width="2" height="2" fill="#B1B3BD" />
<rect x="22" y="34" width="4" height="4" fill="#C9CBD2" />
<rect x="32" y="34" width="2" height="2" fill="#0B1B73" />
<rect x="34" y="34" width="2" height="2" fill="#0022D2" />
<rect x="40" y="34" width="2" height="2" fill="#0B1B73" />
<rect x="42" y="34" width="2" height="2" fill="#0A175A" />
<rect x="52" y="34" width="4" height="16" fill="#1C2F79" />
<rect x="56" y="34" width="2" height="2" fill="#FFFFFF" />
<rect x="58" y="34" width="6" height="30" fill="#1C2F79" />
<rect x="6" y="36" width="2" height="28" fill="#1C2F79" />
<rect x="14" y="36" width="2" height="16" fill="#1C2F79" />
<rect x="16" y="36" width="2" height="4" fill="#FFFFFF" />
<rect x="18" y="36" width="2" height="4" fill="#000000" />
<rect x="20" y="36" width="2" height="4" fill="#9C9DA5" />
<rect x="26" y="36" width="2" height="2" fill="#B8BAC5" />
<rect x="28" y="36" width="2" height="2" fill="#000000" />
<rect x="30" y="36" width="2" height="2" fill="#0A175A" />
<rect x="32" y="36" width="2" height="2" fill="#FFFFFF" />
<rect x="34" y="36" width="6" height="2" fill="#0B1B73" />
<rect x="40" y="36" width="2" height="2" fill="#0A175A" />
<rect x="42" y="36" width="2" height="4" fill="#000000" />
<rect x="44" y="36" width="2" height="4" fill="#FFFFFF" />
<rect x="46" y="36" width="2" height="28" fill="#1C2F79" />
<rect x="56" y="36" width="2" height="18" fill="#1C2F79" />
<rect x="22" y="38" width="2" height="4" fill="#9C9DA5" />
<rect x="24" y="38" width="2" height="2" fill="#B8BAC5" />
<rect x="26" y="38" width="2" height="2" fill="#C9CBD2" />
<rect x="28" y="38" width="2" height="2" fill="#B8BAC5" />
<rect x="30" y="38" width="2" height="2" fill="#000000" />
<rect x="32" y="38" width="8" height="2" fill="#0A175A" />
<rect x="40" y="38" width="2" height="4" fill="#000000" />
<rect x="16" y="40" width="2" height="24" fill="#1C2F79" />
<rect x="18" y="40" width="2" height="2" fill="#FFFFFF" />
<rect x="20" y="40" width="2" height="2" fill="#000000" />
<rect x="24" y="40" width="4" height="2" fill="#9C9DA5" />
<rect x="28" y="40" width="4" height="2" fill="#C9CBD2" />
<rect x="32" y="40" width="8" height="2" fill="#000000" />
<rect x="42" y="40" width="2" height="2" fill="#FFFFFF" />
<rect x="44" y="40" width="2" height="24" fill="#1C2F79" />
<rect x="18" y="42" width="2" height="22" fill="#1C2F79" />
<rect x="20" y="42" width="2" height="2" fill="#FFFFFF" />
<rect x="22" y="42" width="4" height="2" fill="#000000" />
<rect x="26" y="42" width="2" height="2" fill="#B8BAC5" />
<rect x="28" y="42" width="6" height="2" fill="#9C9DA5" />
<rect x="34" y="42" width="2" height="2" fill="#B8BAC5" />
<rect x="36" y="42" width="4" height="2" fill="#000000" />
<rect x="40" y="42" width="2" height="2" fill="#FFFFFF" />
<rect x="42" y="42" width="2" height="22" fill="#1C2F79" />
<rect x="20" y="44" width="2" height="20" fill="#1C2F79" />
<rect x="22" y="44" width="4" height="2" fill="#FFFFFF" />
<rect x="26" y="44" width="10" height="2" fill="#000000" />
<rect x="36" y="44" width="4" height="2" fill="#FFFFFF" />
<rect x="40" y="44" width="2" height="20" fill="#1C2F79" />
<rect x="22" y="46" width="4" height="18" fill="#1C2F79" />
<rect x="26" y="46" width="10" height="2" fill="#FFFFFF" />
<rect x="36" y="46" width="4" height="18" fill="#1C2F79" />
<rect x="26" y="48" width="10" height="10" fill="#1C2F79" />
<rect x="12" y="50" width="2" height="6" fill="#FFFFFF" />
<rect x="52" y="50" width="2" height="10" fill="#FFFFFF" />
<rect x="54" y="50" width="2" height="4" fill="#1C2F79" />
<rect x="10" y="52" width="2" height="2" fill="#FFFFFF" />
<rect x="14" y="52" width="2" height="2" fill="#FFFFFF" />
<rect x="10" y="54" width="2" height="10" fill="#1C2F79" />
<rect x="14" y="54" width="2" height="10" fill="#1C2F79" />
<rect x="48" y="54" width="4" height="2" fill="#FFFFFF" />
<rect x="54" y="54" width="4" height="2" fill="#FFFFFF" />
<rect x="12" y="56" width="2" height="8" fill="#1C2F79" />
<rect x="48" y="56" width="4" height="8" fill="#1C2F79" />
<rect x="54" y="56" width="4" height="8" fill="#1C2F79" />
<rect x="26" y="58" width="4" height="6" fill="#1C2F79" />
<rect x="30" y="58" width="2" height="2" fill="#FFFFFF" />
<rect x="32" y="58" width="4" height="6" fill="#1C2F79" />
<rect x="30" y="60" width="2" height="4" fill="#1C2F79" />
<rect x="52" y="60" width="2" height="4" fill="#1C2F79" />
</svg>