<?xml version="1.0" encoding="UTF-8" ?>
<svg version="1.1" width="64" height="64" xmlns="http://www.w3.org/2000/svg" shape-rendering="crispEdges">
<rect x="0" y="0" width="64" height="6" fill="#EBEAD8" />
<rect x="0" y="6" width="6" height="58" fill="#EBEAD8" />
<rect x="6" y="6" width="50" height="2" fill="#31312F" />
<rect x="56" y="6" width="2" height="52" fill="#7F7E76" />
<rect x="58" y="6" width="6" height="58" fill="#EBEAD8" />
<rect x="6" y="8" width="2" height="48" fill="#31312F" />
<rect x="8" y="8" width="10" height="10" fill="#FBF236" />
<rect x="18" y="8" width="2" height="46" fill="#96958A" />
<rect x="20" y="8" width="10" height="10" fill="#D95763" />
<rect x="30" y="8" width="2" height="46" fill="#96958A" />
<rect x="32" y="8" width="10" height="10" fill="#FFFFFF" />
<rect x="42" y="8" width="2" height="46" fill="#96958A" />
<rect x="44" y="8" width="10" height="10" fill="#FFFFFF" />
<rect x="54" y="8" width="2" height="48" fill="#31312F" />
<rect x="8" y="18" width="10" height="2" fill="#96958A" />
<rect x="20" y="18" width="10" height="2" fill="#96958A" />
<rect x="32" y="18" width="10" height="2" fill="#96958A" />
<rect x="44" y="18" width="10" height="2" fill="#96958A" />
<rect x="8" y="20" width="10" height="10" fill="#FFFFFF" />
<rect x="20" y="20" width="10" height="10" fill="#9BADB7" />
<rect x="32" y="20" width="10" height="10" fill="#F3CB98" />
<rect x="44" y="20" width="10" height="10" fill="#96EFCA" />
<rect x="8" y="30" width="10" height="2" fill="#96958A" />
<rect x="20" y="30" width="10" height="2" fill="#96958A" />
<rect x="32" y="30" width="10" height="2" fill="#96958A" />
<rect x="44" y="30" width="10" height="2" fill="#96958A" />
<rect x="8" y="32" width="10" height="10" fill="#FFFFFF" />
<rect x="20" y="32" width="10" height="10" fill="#CBDBFC" />
<rect x="32" y="32" width="10" height="10" fill="#76428A" />
<rect x="44" y="32" width="10" height="10" fill="#FFFFFF" />
<rect x="8" y="42" width="10" height="2" fill="#96958A" />
<rect x="20" y="42" width="10" height="2" fill="#96958A" />
<rect x="32" y="42" width="10" height="2" fill="#96958A" />
<rect x="44" y="42" width="10" height="2" fill="#96958A" />
<rect x="8" y="44" width="10" height="10" fill="#553C3C" />
<rect x="20" y="44" width="10" height="10" fill="#565679" />
<rect x="32" y="44" width="10" height="10" fill="#FFFFFF" />
<rect x="44" y="44" width="10" height="10" fill="#FFFFFF" />
<rect x="8" y="54" width="46" height="2" fill="#31312F" />
<rect x="6" y="56" width="50" height="2" fill="#7F7E76" />
<rect x="6" y="58" width="52" height="6" fill="#EBEAD8" />
</svg>