<?xml version="1.0" encoding="UTF-8" ?>
<svg version="1.1" width="64" height="64" xmlns="http://www.w3.org/2000/svg" shape-rendering="crispEdges">
<rect x="0" y="0" width="64" height="2" fill="#D78F8F" />
<rect x="0" y="2" width="10" height="2" fill="#D78F8F" />
<rect x="10" y="2" width="10" height="2" fill="#FFFFFF" />
<rect x="20" y="2" width="44" height="2" fill="#D78F8F" />
<rect x="0" y="4" width="8" height="2" fill="#D78F8F" />
<rect x="8" y="4" width="4" height="2" fill="#FFFFFF" />
<rect x="12" y="4" width="6" height="2" fill="#5B6EE1" />
<rect x="18" y="4" width="4" height="2" fill="#FFFFFF" />
<rect x="22" y="4" width="42" height="2" fill="#D78F8F" />
<rect x="0" y="6" width="6" height="58" fill="#D78F8F" />
<rect x="6" y="6" width="4" height="2" fill="#FFFFFF" />
<rect x="10" y="6" width="2" height="6" fill="#5B6EE1" />
<rect x="12" y="6" width="6" height="6" fill="#5FCDE4" />
<rect x="18" y="6" width="2" height="6" fill="#5B6EE1" />
<rect x="20" y="6" width="38" height="2" fill="#FFFFFF" />
<rect x="58" y="6" width="6" height="58" fill="#D78F8F" />
<rect x="6" y="8" width="2" height="50" fill="#FFFFFF" />
<rect x="8" y="8" width="2" height="48" fill="#000000" />
<rect x="20" y="8" width="36" height="2" fill="#000000" />
<rect x="56" y="8" width="2" height="50" fill="#FFFFFF" />
<rect x="20" y="10" width="2" height="2" fill="#8E2828" />
<rect x="22" y="10" width="32" height="2" fill="#AC3232" />
<rect x="54" y="10" width="2" height="46" fill="#000000" />
<rect x="10" y="12" width="2" height="2" fill="#8E2828" />
<rect x="12" y="12" width="6" height="2" fill="#5B6EE1" />
<rect x="18" y="12" width="2" height="2" fill="#8E2828" />
<rect x="20" y="12" width="20" height="4" fill="#AC3232" />
<rect x="40" y="12" width="4" height="2" fill="#7D8286" />
<rect x="44" y="12" width="10" height="2" fill="#AC3232" />
<rect x="10" y="14" width="2" height="12" fill="#AC3232" />
<rect x="12" y="14" width="2" height="2" fill="#8E2828" />
<rect x="14" y="14" width="2" height="6" fill="#5B6EE1" />
<rect x="16" y="14" width="2" height="2" fill="#8E2828" />
<rect x="18" y="14" width="2" height="2" fill="#AC3232" />
<rect x="40" y="14" width="2" height="8" fill="#7D8286" />
<rect x="42" y="14" width="2" height="6" fill="#FFFFFF" />
<rect x="44" y="14" width="2" height="2" fill="#7D8286" />
<rect x="46" y="14" width="8" height="2" fill="#AC3232" />
<rect x="12" y="16" width="2" height="2" fill="#E1E5E7" />
<rect x="16" y="16" width="22" height="2" fill="#E1E5E7" />
<rect x="38" y="16" width="2" height="6" fill="#7D8286" />
<rect x="44" y="16" width="2" height="6" fill="#FFFFFF" />
<rect x="46" y="16" width="2" height="2" fill="#7D8286" />
<rect x="48" y="16" width="4" height="2" fill="#E1E5E7" />
<rect x="52" y="16" width="2" height="10" fill="#AC3232" />
<rect x="12" y="18" width="2" height="2" fill="#B2B2B2" />
<rect x="16" y="18" width="22" height="2" fill="#B2B2B2" />
<rect x="46" y="18" width="2" height="2" fill="#FFFFFF" />
<rect x="48" y="18" width="2" height="4" fill="#7D8286" />
<rect x="50" y="18" width="2" height="2" fill="#B2B2B2" />
<rect x="12" y="20" width="6" height="4" fill="#8E2828" />
<rect x="18" y="20" width="20" height="6" fill="#AC3232" />
<rect x="42" y="20" width="2" height="4" fill="#7D8286" />
<rect x="46" y="20" width="2" height="2" fill="#7D8286" />
<rect x="50" y="20" width="2" height="6" fill="#AC3232" />
<rect x="38" y="22" width="4" height="2" fill="#8E2828" />
<rect x="44" y="22" width="2" height="4" fill="#7D8286" />
<rect x="46" y="22" width="4" height="2" fill="#8E2828" />
<rect x="12" y="24" width="6" height="2" fill="#AC3232" />
<rect x="38" y="24" width="2" height="2" fill="#AC3232" />
<rect x="40" y="24" width="4" height="2" fill="#8E2828" />
<rect x="46" y="24" width="2" height="2" fill="#7D8286" />
<rect x="48" y="24" width="2" height="2" fill="#8E2828" />
<rect x="10" y="26" width="44" height="2" fill="#CBDBFC" />
<rect x="10" y="28" width="2" height="26" fill="#CBDBFC" />
<rect x="12" y="28" width="40" height="2" fill="#1B1F28" />
<rect x="52" y="28" width="2" height="26" fill="#CBDBFC" />
<rect x="12" y="30" width="40" height="2" fill="#ABB8D2" />
<rect x="12" y="32" width="12" height="2" fill="#1B1F28" />
<rect x="24" y="32" width="28" height="2" fill="#CBDBFC" />
<rect x="12" y="34" width="12" height="2" fill="#ABB8D2" />
<rect x="24" y="34" width="4" height="20" fill="#CBDBFC" />
<rect x="28" y="34" width="24" height="2" fill="#1B1F28" />
<rect x="12" y="36" width="12" height="2" fill="#1B1F28" />
<rect x="28" y="36" width="14" height="2" fill="#1B1F28" />
<rect x="42" y="36" width="8" height="4" fill="#353E51" />
<rect x="50" y="36" width="2" height="12" fill="#1B1F28" />
<rect x="12" y="38" width="12" height="2" fill="#ABB8D2" />
<rect x="28" y="38" width="6" height="2" fill="#1B1F28" />
<rect x="34" y="38" width="8" height="4" fill="#353E51" />
<rect x="12" y="40" width="12" height="2" fill="#1B1F28" />
<rect x="28" y="40" width="4" height="2" fill="#1B1F28" />
<rect x="32" y="40" width="2" height="4" fill="#353E51" />
<rect x="42" y="40" width="6" height="2" fill="#353E51" />
<rect x="48" y="40" width="2" height="8" fill="#1B1F28" />
<rect x="12" y="42" width="12" height="2" fill="#ABB8D2" />
<rect x="28" y="42" width="2" height="6" fill="#1B1F28" />
<rect x="30" y="42" width="2" height="2" fill="#353E51" />
<rect x="34" y="42" width="6" height="2" fill="#353E51" />
<rect x="40" y="42" width="8" height="6" fill="#1B1F28" />
<rect x="12" y="44" width="12" height="2" fill="#1B1F28" />
<rect x="30" y="44" width="10" height="4" fill="#1B1F28" />
<rect x="12" y="46" width="12" height="4" fill="#ABB8D2" />
<rect x="28" y="48" width="24" height="2" fill="#465169" />
<rect x="12" y="50" width="12" height="4" fill="#CBDBFC" />
<rect x="28" y="50" width="24" height="2" fill="#ABB8D2" />
<rect x="28" y="52" width="24" height="2" fill="#CBDBFC" />
<rect x="10" y="54" width="44" height="2" fill="#000000" />
<rect x="8" y="56" width="48" height="2" fill="#FFFFFF" />
<rect x="6" y="58" width="52" height="6" fill="#D78F8F" />
</svg>