<?xml version="1.0" encoding="UTF-8" ?>
<svg version="1.1" width="64" height="64" xmlns="http://www.w3.org/2000/svg" shape-rendering="crispEdges">
<rect x="0" y="0" width="64" height="2" fill="#222034" />
<rect x="0" y="2" width="14" height="2" fill="#222034" />
<rect x="14" y="2" width="36" height="2" fill="#FFFFFF" />
<rect x="50" y="2" width="14" height="2" fill="#222034" />
<rect x="0" y="4" width="12" height="2" fill="#222034" />
<rect x="12" y="4" width="4" height="2" fill="#FFFFFF" />
<rect x="16" y="4" width="32" height="2" fill="#492B1C" />
<rect x="48" y="4" width="4" height="2" fill="#FFFFFF" />
<rect x="52" y="4" width="12" height="2" fill="#222034" />
<rect x="0" y="6" width="10" height="58" fill="#222034" />
<rect x="10" y="6" width="4" height="2" fill="#FFFFFF" />
<rect x="14" y="6" width="2" height="2" fill="#492B1C" />
<rect x="16" y="6" width="2" height="4" fill="#71432D" />
<rect x="18" y="6" width="2" height="48" fill="#492B1C" />
<rect x="20" y="6" width="8" height="2" fill="#71432D" />
<rect x="28" y="6" width="2" height="2" fill="#7D4C34" />
<rect x="30" y="6" width="2" height="2" fill="#71432D" />
<rect x="32" y="6" width="2" height="2" fill="#8F563B" />
<rect x="34" y="6" width="4" height="2" fill="#71432D" />
<rect x="38" y="6" width="2" height="4" fill="#8F563B" />
<rect x="40" y="6" width="2" height="2" fill="#71432D" />
<rect x="42" y="6" width="2" height="2" fill="#7D4C34" />
<rect x="44" y="6" width="4" height="2" fill="#71432D" />
<rect x="48" y="6" width="2" height="2" fill="#492B1C" />
<rect x="50" y="6" width="4" height="2" fill="#FFFFFF" />
<rect x="54" y="6" width="10" height="58" fill="#222034" />
<rect x="10" y="8" width="2" height="48" fill="#FFFFFF" />
<rect x="12" y="8" width="2" height="46" fill="#492B1C" />
<rect x="14" y="8" width="2" height="4" fill="#71432D" />
<rect x="20" y="8" width="6" height="2" fill="#71432D" />
<rect x="26" y="8" width="2" height="2" fill="#7D4C34" />
<rect x="28" y="8" width="2" height="2" fill="#71432D" />
<rect x="30" y="8" width="4" height="2" fill="#7D4C34" />
<rect x="34" y="8" width="2" height="2" fill="#8F563B" />
<rect x="36" y="8" width="2" height="2" fill="#7D4C34" />
<rect x="40" y="8" width="2" height="2" fill="#8F563B" />
<rect x="42" y="8" width="2" height="2" fill="#71432D" />
<rect x="44" y="8" width="2" height="2" fill="#8F563B" />
<rect x="46" y="8" width="4" height="2" fill="#71432D" />
<rect x="50" y="8" width="2" height="38" fill="#492B1C" />
<rect x="52" y="8" width="2" height="40" fill="#FFFFFF" />
<rect x="16" y="10" width="2" height="2" fill="#7D4C34" />
<rect x="20" y="10" width="4" height="2" fill="#71432D" />
<rect x="24" y="10" width="2" height="2" fill="#7D4C34" />
<rect x="26" y="10" width="2" height="2" fill="#71432D" />
<rect x="28" y="10" width="2" height="2" fill="#7D4C34" />
<rect x="30" y="10" width="2" height="2" fill="#8F563B" />
<rect x="32" y="10" width="2" height="2" fill="#71432D" />
<rect x="34" y="10" width="2" height="4" fill="#7D4C34" />
<rect x="36" y="10" width="2" height="2" fill="#8F563B" />
<rect x="38" y="10" width="2" height="2" fill="#71432D" />
<rect x="40" y="10" width="2" height="2" fill="#7D4C34" />
<rect x="42" y="10" width="2" height="2" fill="#8F563B" />
<rect x="44" y="10" width="2" height="2" fill="#71432D" />
<rect x="46" y="10" width="2" height="2" fill="#7D4C34" />
<rect x="48" y="10" width="2" height="6" fill="#71432D" />
<rect x="14" y="12" width="2" height="2" fill="#7D4C34" />
<rect x="16" y="12" width="2" height="2" fill="#71432D" />
<rect x="20" y="12" width="2" height="2" fill="#71432D" />
<rect x="22" y="12" width="2" height="2" fill="#7D4C34" />
<rect x="24" y="12" width="2" height="2" fill="#71432D" />
<rect x="26" y="12" width="2" height="2" fill="#8F563B" />
<rect x="28" y="12" width="2" height="2" fill="#71432D" />
<rect x="30" y="12" width="2" height="2" fill="#7D4C34" />
<rect x="32" y="12" width="2" height="2" fill="#8F563B" />
<rect x="36" y="12" width="2" height="2" fill="#7D4C34" />
<rect x="38" y="12" width="4" height="2" fill="#8F563B" />
<rect x="42" y="12" width="2" height="2" fill="#71432D" />
<rect x="44" y="12" width="2" height="2" fill="#8F563B" />
<rect x="46" y="12" width="2" height="2" fill="#71432D" />
<rect x="14" y="14" width="2" height="2" fill="#71432D" />
<rect x="16" y="14" width="2" height="2" fill="#7D4C34" />
<rect x="20" y="14" width="2" height="2" fill="#7D4C34" />
<rect x="22" y="14" width="2" height="2" fill="#71432D" />
<rect x="24" y="14" width="2" height="2" fill="#8F563B" />
<rect x="26" y="14" width="4" height="2" fill="#7D4C34" />
<rect x="30" y="14" width="2" height="4" fill="#8F563B" />
<rect x="32" y="14" width="2" height="2" fill="#7D4C34" />
<rect x="34" y="14" width="4" height="4" fill="#8F563B" />
<rect x="38" y="14" width="6" height="2" fill="#7D4C34" />
<rect x="44" y="14" width="2" height="2" fill="#71432D" />
<rect x="46" y="14" width="2" height="2" fill="#8F563B" />
<rect x="14" y="16" width="2" height="2" fill="#7D4C34" />
<rect x="16" y="16" width="2" height="2" fill="#71432D" />
<rect x="20" y="16" width="2" height="2" fill="#71432D" />
<rect x="22" y="16" width="2" height="2" fill="#8F563B" />
<rect x="24" y="16" width="2" height="2" fill="#7D4C34" />
<rect x="26" y="16" width="2" height="2" fill="#71432D" />
<rect x="28" y="16" width="2" height="2" fill="#8F563B" />
<rect x="32" y="16" width="2" height="2" fill="#8F563B" />
<rect x="38" y="16" width="4" height="2" fill="#8F563B" />
<rect x="42" y="16" width="2" height="2" fill="#7D4C34" />
<rect x="44" y="16" width="2" height="2" fill="#8F563B" />
<rect x="46" y="16" width="2" height="2" fill="#71432D" />
<rect x="48" y="16" width="2" height="2" fill="#7D4C34" />
<rect x="14" y="18" width="2" height="2" fill="#8F563B" />
<rect x="16" y="18" width="2" height="2" fill="#7D4C34" />
<rect x="20" y="18" width="2" height="2" fill="#7D4C34" />
<rect x="22" y="18" width="2" height="2" fill="#71432D" />
<rect x="24" y="18" width="2" height="4" fill="#8F563B" />
<rect x="26" y="18" width="2" height="2" fill="#7D4C34" />
<rect x="28" y="18" width="14" height="2" fill="#514035" />
<rect x="42" y="18" width="2" height="2" fill="#8F563B" />
<rect x="44" y="18" width="2" height="2" fill="#7D4C34" />
<rect x="46" y="18" width="2" height="2" fill="#8F563B" />
<rect x="48" y="18" width="2" height="2" fill="#71432D" />
<rect x="14" y="20" width="2" height="2" fill="#71432D" />
<rect x="16" y="20" width="2" height="10" fill="#8F563B" />
<rect x="20" y="20" width="2" height="2" fill="#71432D" />
<rect x="22" y="20" width="2" height="2" fill="#7D4C34" />
<rect x="26" y="20" width="2" height="2" fill="#514035" />
<rect x="28" y="20" width="2" height="2" fill="#D2CCB9" />
<rect x="30" y="20" width="2" height="2" fill="#BAB4A4" />
<rect x="32" y="20" width="2" height="8" fill="#D2CCB9" />
<rect x="34" y="20" width="2" height="8" fill="#BAB4A4" />
<rect x="36" y="20" width="2" height="8" fill="#D2CCB9" />
<rect x="38" y="20" width="2" height="2" fill="#BAB4A4" />
<rect x="40" y="20" width="2" height="2" fill="#D2CCB9" />
<rect x="42" y="20" width="2" height="2" fill="#514035" />
<rect x="44" y="20" width="2" height="2" fill="#8F563B" />
<rect x="46" y="20" width="2" height="2" fill="#71432D" />
<rect x="48" y="20" width="2" height="2" fill="#7D4C34" />
<rect x="14" y="22" width="2" height="8" fill="#8F563B" />
<rect x="20" y="22" width="2" height="2" fill="#8F563B" />
<rect x="22" y="22" width="2" height="2" fill="#71432D" />
<rect x="24" y="22" width="2" height="4" fill="#514035" />
<rect x="26" y="22" width="2" height="4" fill="#D2CCB9" />
<rect x="28" y="22" width="2" height="4" fill="#BAB4A4" />
<rect x="30" y="22" width="2" height="4" fill="#D2CCB9" />
<rect x="38" y="22" width="2" height="4" fill="#D2CCB9" />
<rect x="40" y="22" width="2" height="4" fill="#BAB4A4" />
<rect x="42" y="22" width="2" height="4" fill="#D2CCB9" />
<rect x="44" y="22" width="2" height="4" fill="#514035" />
<rect x="46" y="22" width="2" height="2" fill="#7D4C34" />
<rect x="48" y="22" width="2" height="2" fill="#71432D" />
<rect x="20" y="24" width="2" height="4" fill="#71432D" />
<rect x="22" y="24" width="2" height="4" fill="#8F563B" />
<rect x="46" y="24" width="2" height="2" fill="#71432D" />
<rect x="48" y="24" width="2" height="2" fill="#7D4C34" />
<rect x="24" y="26" width="2" height="4" fill="#8F563B" />
<rect x="26" y="26" width="2" height="2" fill="#514035" />
<rect x="28" y="26" width="2" height="2" fill="#D2CCB9" />
<rect x="30" y="26" width="2" height="2" fill="#BAB4A4" />
<rect x="38" y="26" width="2" height="2" fill="#BAB4A4" />
<rect x="40" y="26" width="2" height="2" fill="#D2CCB9" />
<rect x="42" y="26" width="2" height="2" fill="#514035" />
<rect x="44" y="26" width="4" height="2" fill="#8F563B" />
<rect x="48" y="26" width="2" height="4" fill="#71432D" />
<rect x="20" y="28" width="2" height="2" fill="#8F563B" />
<rect x="22" y="28" width="2" height="2" fill="#71432D" />
<rect x="26" y="28" width="2" height="10" fill="#8F563B" />
<rect x="28" y="28" width="2" height="8" fill="#514035" />
<rect x="30" y="28" width="2" height="6" fill="#D2CCB9" />
<rect x="32" y="28" width="2" height="6" fill="#BAB4A4" />
<rect x="34" y="28" width="2" height="6" fill="#D2CCB9" />
<rect x="36" y="28" width="2" height="6" fill="#BAB4A4" />
<rect x="38" y="28" width="2" height="6" fill="#D2CCB9" />
<rect x="40" y="28" width="2" height="8" fill="#514035" />
<rect x="42" y="28" width="4" height="4" fill="#8F563B" />
<rect x="46" y="28" width="2" height="2" fill="#7D4C34" />
<rect x="14" y="30" width="2" height="2" fill="#71432D" />
<rect x="16" y="30" width="2" height="2" fill="#7D4C34" />
<rect x="20" y="30" width="2" height="2" fill="#71432D" />
<rect x="22" y="30" width="2" height="2" fill="#8F563B" />
<rect x="24" y="30" width="2" height="2" fill="#7D4C34" />
<rect x="46" y="30" width="2" height="2" fill="#71432D" />
<rect x="48" y="30" width="2" height="2" fill="#7D4C34" />
<rect x="14" y="32" width="2" height="2" fill="#7D4C34" />
<rect x="16" y="32" width="2" height="2" fill="#71432D" />
<rect x="20" y="32" width="2" height="2" fill="#7D4C34" />
<rect x="22" y="32" width="2" height="2" fill="#71432D" />
<rect x="24" y="32" width="2" height="2" fill="#8F563B" />
<rect x="42" y="32" width="2" height="4" fill="#8F563B" />
<rect x="44" y="32" width="2" height="2" fill="#7D4C34" />
<rect x="46" y="32" width="2" height="2" fill="#8F563B" />
<rect x="48" y="32" width="2" height="4" fill="#71432D" />
<rect x="14" y="34" width="4" height="2" fill="#8F563B" />
<rect x="20" y="34" width="2" height="10" fill="#71432D" />
<rect x="22" y="34" width="2" height="4" fill="#7D4C34" />
<rect x="24" y="34" width="2" height="4" fill="#71432D" />
<rect x="30" y="34" width="10" height="2" fill="#514035" />
<rect x="44" y="34" width="2" height="2" fill="#8F563B" />
<rect x="46" y="34" width="2" height="2" fill="#7D4C34" />
<rect x="14" y="36" width="4" height="2" fill="#71432D" />
<rect x="28" y="36" width="2" height="2" fill="#7D4C34" />
<rect x="30" y="36" width="12" height="2" fill="#8F563B" />
<rect x="42" y="36" width="2" height="2" fill="#7D4C34" />
<rect x="44" y="36" width="4" height="2" fill="#71432D" />
<rect x="48" y="36" width="2" height="2" fill="#7D4C34" />
<rect x="14" y="38" width="2" height="2" fill="#7D4C34" />
<rect x="16" y="38" width="2" height="2" fill="#8F563B" />
<rect x="22" y="38" width="2" height="6" fill="#71432D" />
<rect x="24" y="38" width="2" height="2" fill="#7D4C34" />
<rect x="26" y="38" width="2" height="2" fill="#71432D" />
<rect x="28" y="38" width="4" height="2" fill="#8F563B" />
<rect x="32" y="38" width="2" height="2" fill="#71432D" />
<rect x="34" y="38" width="2" height="2" fill="#8F563B" />
<rect x="36" y="38" width="2" height="2" fill="#71432D" />
<rect x="38" y="38" width="2" height="2" fill="#7D4C34" />
<rect x="40" y="38" width="2" height="2" fill="#71432D" />
<rect x="42" y="38" width="2" height="2" fill="#8F563B" />
<rect x="44" y="38" width="2" height="2" fill="#71432D" />
<rect x="46" y="38" width="2" height="2" fill="#7D4C34" />
<rect x="48" y="38" width="2" height="6" fill="#71432D" />
<rect x="14" y="40" width="4" height="4" fill="#71432D" />
<rect x="24" y="40" width="2" height="4" fill="#71432D" />
<rect x="26" y="40" width="2" height="2" fill="#7D4C34" />
<rect x="28" y="40" width="2" height="4" fill="#71432D" />
<rect x="30" y="40" width="2" height="2" fill="#8F563B" />
<rect x="32" y="40" width="2" height="2" fill="#7D4C34" />
<rect x="34" y="40" width="2" height="2" fill="#71432D" />
<rect x="36" y="40" width="2" height="2" fill="#8F563B" />
<rect x="38" y="40" width="2" height="4" fill="#71432D" />
<rect x="40" y="40" width="2" height="2" fill="#8F563B" />
<rect x="42" y="40" width="2" height="2" fill="#71432D" />
<rect x="44" y="40" width="2" height="2" fill="#7D4C34" />
<rect x="46" y="40" width="2" height="4" fill="#71432D" />
<rect x="26" y="42" width="2" height="2" fill="#71432D" />
<rect x="30" y="42" width="4" height="2" fill="#71432D" />
<rect x="34" y="42" width="2" height="2" fill="#7D4C34" />
<rect x="36" y="42" width="2" height="2" fill="#71432D" />
<rect x="40" y="42" width="2" height="2" fill="#71432D" />
<rect x="42" y="42" width="2" height="2" fill="#7D4C34" />
<rect x="44" y="42" width="2" height="2" fill="#71432D" />
<rect x="14" y="44" width="4" height="2" fill="#492B1C" />
<rect x="20" y="44" width="30" height="2" fill="#492B1C" />
<rect x="14" y="46" width="4" height="4" fill="#71432D" />
<rect x="20" y="46" width="4" height="2" fill="#AA9393" />
<rect x="24" y="46" width="2" height="2" fill="#CEC3C3" />
<rect x="26" y="46" width="2" height="2" fill="#B29F9F" />
<rect x="28" y="46" width="14" height="2" fill="#CEC3C3" />
<rect x="42" y="46" width="2" height="6" fill="#B29F9F" />
<rect x="44" y="46" width="2" height="8" fill="#492B1C" />
<rect x="46" y="46" width="2" height="2" fill="#7D4C34" />
<rect x="48" y="46" width="2" height="12" fill="#492B1C" />
<rect x="50" y="46" width="2" height="14" fill="#FFFFFF" />
<rect x="20" y="48" width="2" height="4" fill="#AA9393" />
<rect x="22" y="48" width="10" height="2" fill="#862727" />
<rect x="32" y="48" width="10" height="2" fill="#CEC3C3" />
<rect x="46" y="48" width="2" height="2" fill="#71432D" />
<rect x="52" y="48" width="2" height="16" fill="#222034" />
<rect x="14" y="50" width="2" height="2" fill="#71432D" />
<rect x="16" y="50" width="2" height="2" fill="#7D4C34" />
<rect x="22" y="50" width="2" height="10" fill="#862727" />
<rect x="24" y="50" width="2" height="2" fill="#AC3232" />
<rect x="26" y="50" width="2" height="2" fill="#BA3737" />
<rect x="28" y="50" width="2" height="2" fill="#AC3232" />
<rect x="30" y="50" width="2" height="10" fill="#862727" />
<rect x="32" y="50" width="6" height="2" fill="#CEC3C3" />
<rect x="38" y="50" width="4" height="2" fill="#B29F9F" />
<rect x="46" y="50" width="2" height="2" fill="#7D4C34" />
<rect x="14" y="52" width="2" height="2" fill="#8F563B" />
<rect x="16" y="52" width="2" height="4" fill="#71432D" />
<rect x="20" y="52" width="2" height="2" fill="#492B1C" />
<rect x="24" y="52" width="2" height="2" fill="#BA3737" />
<rect x="26" y="52" width="2" height="4" fill="#DB3A3A" />
<rect x="28" y="52" width="2" height="2" fill="#BA3737" />
<rect x="32" y="52" width="12" height="2" fill="#492B1C" />
<rect x="46" y="52" width="2" height="4" fill="#71432D" />
<rect x="12" y="54" width="2" height="4" fill="#FFFFFF" />
<rect x="14" y="54" width="2" height="2" fill="#492B1C" />
<rect x="18" y="54" width="2" height="2" fill="#8F563B" />
<rect x="20" y="54" width="2" height="2" fill="#71432D" />
<rect x="24" y="54" width="2" height="4" fill="#AC3232" />
<rect x="28" y="54" width="2" height="4" fill="#AC3232" />
<rect x="32" y="54" width="4" height="2" fill="#8F563B" />
<rect x="36" y="54" width="4" height="2" fill="#7D4C34" />
<rect x="40" y="54" width="2" height="2" fill="#71432D" />
<rect x="42" y="54" width="2" height="2" fill="#7D4C34" />
<rect x="44" y="54" width="2" height="2" fill="#71432D" />
<rect x="10" y="56" width="2" height="8" fill="#222034" />
<rect x="14" y="56" width="2" height="4" fill="#FFFFFF" />
<rect x="16" y="56" width="6" height="2" fill="#492B1C" />
<rect x="26" y="56" width="2" height="2" fill="#BA3737" />
<rect x="32" y="56" width="16" height="2" fill="#492B1C" />
<rect x="12" y="58" width="2" height="6" fill="#222034" />
<rect x="16" y="58" width="6" height="2" fill="#FFFFFF" />
<rect x="24" y="58" width="6" height="2" fill="#862727" />
<rect x="32" y="58" width="18" height="2" fill="#FFFFFF" />
<rect x="14" y="60" width="6" height="4" fill="#222034" />
<rect x="20" y="60" width="14" height="2" fill="#FFFFFF" />
<rect x="34" y="60" width="18" height="4" fill="#222034" />
<rect x="20" y="62" width="14" height="2" fill="#222034" />
</svg>