<?xml version="1.0" encoding="UTF-8" ?>
<svg version="1.1" width="64" height="64" xmlns="http://www.w3.org/2000/svg" shape-rendering="crispEdges">
<rect x="0" y="0" width="64" height="16" fill="#201F1F" />
<rect x="0" y="16" width="26" height="2" fill="#201F1F" />
<rect x="26" y="16" width="4" height="2" fill="#FFFFFF" />
<rect x="30" y="16" width="2" height="2" fill="#201F1F" />
<rect x="32" y="16" width="4" height="2" fill="#FFFFFF" />
<rect x="36" y="16" width="2" height="2" fill="#201F1F" />
<rect x="38" y="16" width="4" height="2" fill="#FFFFFF" />
<rect x="42" y="16" width="22" height="2" fill="#201F1F" />
<rect x="0" y="18" width="20" height="2" fill="#201F1F" />
<rect x="20" y="18" width="6" height="2" fill="#FFFFFF" />
<rect x="26" y="18" width="4" height="2" fill="#9F99A2" />
<rect x="30" y="18" width="2" height="14" fill="#FFFFFF" />
<rect x="32" y="18" width="2" height="2" fill="#9F99A2" />
<rect x="34" y="18" width="2" height="2" fill="#847E87" />
<rect x="36" y="18" width="2" height="10" fill="#FFFFFF" />
<rect x="38" y="18" width="2" height="2" fill="#726C75" />
<rect x="40" y="18" width="2" height="2" fill="#9F99A2" />
<rect x="42" y="18" width="2" height="10" fill="#FFFFFF" />
<rect x="44" y="18" width="20" height="10" fill="#201F1F" />
<rect x="0" y="20" width="18" height="10" fill="#201F1F" />
<rect x="18" y="20" width="2" height="10" fill="#FFFFFF" />
<rect x="20" y="20" width="4" height="2" fill="#9F99A2" />
<rect x="24" y="20" width="2" height="10" fill="#FFFFFF" />
<rect x="26" y="20" width="4" height="2" fill="#847E87" />
<rect x="32" y="20" width="2" height="2" fill="#847E87" />
<rect x="34" y="20" width="2" height="2" fill="#9F99A2" />
<rect x="38" y="20" width="2" height="2" fill="#9F99A2" />
<rect x="40" y="20" width="2" height="2" fill="#847E87" />
<rect x="20" y="22" width="4" height="2" fill="#847E87" />
<rect x="26" y="22" width="2" height="2" fill="#847E87" />
<rect x="28" y="22" width="2" height="4" fill="#797979" />
<rect x="32" y="22" width="2" height="4" fill="#797979" />
<rect x="34" y="22" width="2" height="2" fill="#726C75" />
<rect x="38" y="22" width="2" height="4" fill="#847E87" />
<rect x="40" y="22" width="2" height="2" fill="#797979" />
<rect x="20" y="24" width="2" height="2" fill="#726C75" />
<rect x="22" y="24" width="2" height="4" fill="#797979" />
<rect x="26" y="24" width="2" height="2" fill="#797979" />
<rect x="34" y="24" width="2" height="2" fill="#797979" />
<rect x="40" y="24" width="2" height="2" fill="#847E87" />
<rect x="20" y="26" width="2" height="4" fill="#5D5D5D" />
<rect x="26" y="26" width="2" height="4" fill="#726C75" />
<rect x="28" y="26" width="2" height="2" fill="#5D5D5D" />
<rect x="32" y="26" width="4" height="2" fill="#FFFFFF" />
<rect x="38" y="26" width="4" height="2" fill="#FFFFFF" />
<rect x="22" y="28" width="2" height="2" fill="#5D5D5D" />
<rect x="28" y="28" width="2" height="2" fill="#726C75" />
<rect x="32" y="28" width="12" height="2" fill="#5D5D5D" />
<rect x="44" y="28" width="2" height="10" fill="#FFFFFF" />
<rect x="46" y="28" width="18" height="36" fill="#201F1F" />
<rect x="0" y="30" width="16" height="34" fill="#201F1F" />
<rect x="16" y="30" width="2" height="10" fill="#FFFFFF" />
<rect x="18" y="30" width="2" height="10" fill="#5D5D5D" />
<rect x="20" y="30" width="4" height="2" fill="#FFFFFF" />
<rect x="24" y="30" width="2" height="2" fill="#6D6565" />
<rect x="26" y="30" width="4" height="2" fill="#FFFFFF" />
<rect x="32" y="30" width="10" height="2" fill="#847E87" />
<rect x="42" y="30" width="2" height="8" fill="#9F99A2" />
<rect x="20" y="32" width="4" height="2" fill="#6D6565" />
<rect x="24" y="32" width="2" height="2" fill="#797979" />
<rect x="26" y="32" width="6" height="2" fill="#6D6565" />
<rect x="32" y="32" width="8" height="2" fill="#FFFFFF" />
<rect x="40" y="32" width="2" height="6" fill="#847E87" />
<rect x="20" y="34" width="4" height="2" fill="#928C96" />
<rect x="24" y="34" width="2" height="2" fill="#726C75" />
<rect x="26" y="34" width="6" height="2" fill="#797979" />
<rect x="32" y="34" width="8" height="4" fill="#5D5D5D" />
<rect x="20" y="36" width="2" height="4" fill="#9F99A2" />
<rect x="22" y="36" width="4" height="2" fill="#847E87" />
<rect x="26" y="36" width="6" height="2" fill="#726C75" />
<rect x="22" y="38" width="2" height="4" fill="#847E87" />
<rect x="24" y="38" width="6" height="4" fill="#9F99A2" />
<rect x="30" y="38" width="4" height="6" fill="#847E87" />
<rect x="34" y="38" width="4" height="4" fill="#726C75" />
<rect x="38" y="38" width="2" height="4" fill="#797979" />
<rect x="40" y="38" width="2" height="4" fill="#5D5D5D" />
<rect x="42" y="38" width="2" height="4" fill="#FFFFFF" />
<rect x="44" y="38" width="2" height="26" fill="#201F1F" />
<rect x="16" y="40" width="2" height="24" fill="#201F1F" />
<rect x="18" y="40" width="2" height="2" fill="#FFFFFF" />
<rect x="20" y="40" width="2" height="2" fill="#6D6565" />
<rect x="18" y="42" width="2" height="22" fill="#201F1F" />
<rect x="20" y="42" width="2" height="2" fill="#FFFFFF" />
<rect x="22" y="42" width="2" height="2" fill="#6D6565" />
<rect x="24" y="42" width="6" height="2" fill="#847E87" />
<rect x="34" y="42" width="2" height="2" fill="#847E87" />
<rect x="36" y="42" width="2" height="2" fill="#797979" />
<rect x="38" y="42" width="2" height="2" fill="#5D5D5D" />
<rect x="40" y="42" width="2" height="2" fill="#FFFFFF" />
<rect x="42" y="42" width="2" height="22" fill="#201F1F" />
<rect x="20" y="44" width="2" height="20" fill="#201F1F" />
<rect x="22" y="44" width="2" height="20" fill="#FFFFFF" />
<rect x="24" y="44" width="6" height="2" fill="#797979" />
<rect x="30" y="44" width="4" height="4" fill="#726C75" />
<rect x="34" y="44" width="2" height="4" fill="#797979" />
<rect x="36" y="44" width="2" height="8" fill="#5D5D5D" />
<rect x="38" y="44" width="2" height="20" fill="#FFFFFF" />
<rect x="40" y="44" width="2" height="20" fill="#201F1F" />
<rect x="24" y="46" width="4" height="10" fill="#5D5D5D" />
<rect x="28" y="46" width="2" height="4" fill="#9F99A2" />
<rect x="30" y="48" width="4" height="4" fill="#847E87" />
<rect x="34" y="48" width="2" height="2" fill="#5D5D5D" />
<rect x="28" y="50" width="2" height="6" fill="#5D5D5D" />
<rect x="34" y="50" width="2" height="2" fill="#797979" />
<rect x="30" y="52" width="4" height="6" fill="#726C75" />
<rect x="34" y="52" width="2" height="6" fill="#847E87" />
<rect x="36" y="52" width="2" height="6" fill="#9F99A2" />
<rect x="24" y="56" width="2" height="8" fill="#797979" />
<rect x="26" y="56" width="4" height="2" fill="#847E87" />
<rect x="26" y="58" width="2" height="4" fill="#847E87" />
<rect x="28" y="58" width="8" height="6" fill="#5D5D5D" />
<rect x="36" y="58" width="2" height="2" fill="#928C96" />
<rect x="36" y="60" width="2" height="4" fill="#5D5D5D" />
<rect x="26" y="62" width="2" height="2" fill="#797979" />
</svg>